<svg width="560" height="440" viewBox="0 0 560 440" fill="none" xmlns="http://www.w3.org/2000/svg">
<path fill-rule="evenodd" clip-rule="evenodd" d="M8 0C3.58179 0 0 3.58154 0 8V15.4229H7.02979C8.55933 12.7788 11.418 11 14.6924 11C19.5779 11 23.5386 14.9604 23.5386 19.8462C23.5386 24.7319 19.5779 28.6924 14.6924 28.6924C11.4177 28.6924 8.55908 26.9136 7.02954 24.269H0V42.1152H7.02979C8.55933 39.4712 11.418 37.6924 14.6924 37.6924C19.5779 37.6924 23.5386 41.6528 23.5386 46.5386C23.5386 51.4238 19.5779 55.3848 14.6924 55.3848C11.418 55.3848 8.55908 53.6055 7.02954 50.9614H0V68.8076H7.02979C8.55933 66.1636 11.418 64.3848 14.6924 64.3848C19.5779 64.3848 23.5386 68.3452 23.5386 73.231C23.5386 78.1162 19.5779 82.0771 14.6924 82.0771C11.418 82.0771 8.55908 80.2979 7.02954 77.6538H0V95.5H7.02954C8.55908 92.856 11.418 91.0771 14.6924 91.0771C19.5779 91.0771 23.5386 95.0376 23.5386 99.9229C23.5386 104.809 19.5779 108.769 14.6924 108.769C11.418 108.769 8.55933 106.99 7.02979 104.346H0V122.192H7.02954C8.55908 119.548 11.418 117.769 14.6924 117.769C19.5779 117.769 23.5386 121.73 23.5386 126.615C23.5386 131.501 19.5779 135.461 14.6924 135.461C11.418 135.461 8.55933 133.683 7.02979 131.039H0V148.885H7.02954C8.55908 146.24 11.4177 144.461 14.6924 144.461C19.5779 144.461 23.5386 148.422 23.5386 153.308C23.5386 158.193 19.5779 162.154 14.6924 162.154C11.418 162.154 8.55933 160.375 7.02979 157.731H0V175.577H7.02954C8.55908 172.933 11.4177 171.154 14.6924 171.154C19.5779 171.154 23.5386 175.114 23.5386 180C23.5386 184.886 19.5779 188.846 14.6924 188.846C11.4177 188.846 8.55908 187.067 7.02954 184.423H0V202.269H7.02979C8.55933 199.625 11.418 197.846 14.6924 197.846C19.5779 197.846 23.5386 201.807 23.5386 206.692C23.5386 211.578 19.5779 215.539 14.6924 215.539C11.4177 215.539 8.55908 213.76 7.02954 211.115H0V228.961H7.02979C8.55933 226.317 11.418 224.539 14.6924 224.539C19.5779 224.539 23.5386 228.499 23.5386 233.385C23.5386 238.27 19.5779 242.231 14.6924 242.231C11.418 242.231 8.55908 240.452 7.02954 237.808H0V255.654H7.02979C8.55933 253.01 11.418 251.231 14.6924 251.231C19.5779 251.231 23.5386 255.191 23.5386 260.077C23.5386 264.962 19.5779 268.923 14.6924 268.923C11.418 268.923 8.55908 267.144 7.02954 264.5H0V282.346H7.02954C8.55908 279.702 11.418 277.923 14.6924 277.923C19.5779 277.923 23.5386 281.884 23.5386 286.769C23.5386 291.655 19.5779 295.615 14.6924 295.615C11.418 295.615 8.55933 293.836 7.02979 291.192H0V309.039H7.02954C8.55908 306.394 11.4177 304.615 14.6924 304.615C19.5779 304.615 23.5386 308.576 23.5386 313.461C23.5386 318.347 19.5779 322.308 14.6924 322.308C11.418 322.308 8.55933 320.529 7.02979 317.885H0V335.731H7.02954C8.55908 333.086 11.4177 331.308 14.6924 331.308C19.5779 331.308 23.5386 335.268 23.5386 340.154C23.5386 345.04 19.5779 349 14.6924 349C11.418 349 8.55933 347.221 7.02979 344.577H0V362.423H7.02979C8.55933 359.779 11.418 358 14.6924 358C19.5779 358 23.5386 361.96 23.5386 366.846C23.5386 371.732 19.5779 375.692 14.6924 375.692C11.4177 375.692 8.55908 373.914 7.02954 371.269H0V389.115H7.02979C8.55933 386.471 11.418 384.692 14.6924 384.692C19.5779 384.692 23.5386 388.653 23.5386 393.539C23.5386 398.424 19.5779 402.385 14.6924 402.385C11.4177 402.385 8.55908 400.606 7.02954 397.961H0V415.808H7.02979C8.55933 413.164 11.418 411.385 14.6924 411.385C19.5779 411.385 23.5386 415.345 23.5386 420.231C23.5386 425.116 19.5779 429.077 14.6924 429.077C11.418 429.077 8.55908 427.298 7.02954 424.654H0V432C0 436.418 3.58179 440 8 440H552C556.418 440 560 436.418 560 432V8C560 3.58154 556.418 0 552 0H8Z" fill="#FFFDF3"/>
</svg>
